<?xml version="1.0" encoding="UTF-8" standalone="no"?>
<svg width="182px" height="64px" viewBox="0 0 182 64" version="1.1" xmlns="http://www.w3.org/2000/svg" xmlns:xlink="http://www.w3.org/1999/xlink">
    <!-- Generator: Sketch 42 (36781) - http://www.bohemiancoding.com/sketch -->
    <title>Logo- iqualify-header-logo</title>
    <desc>Created with Sketch.</desc>
    <defs></defs>
    <g id="Page-1-Copy" stroke="none" stroke-width="1" fill="none" fill-rule="evenodd">
        <g id="Desktop" transform="translate(-63.000000, -4.000000)">
            <g id="Logo-/-iQualify-header-logo" transform="translate(63.000000, 4.000000)">
                <g id="iqualify-header-logo">
                    <g id="Layer_1">
                        <g id="Group">
                            <path d="M57.5,60.4 L57.5,0 L0.1,0 L0.1,60.4 C0.1,63.1 2.2,64.6 4.7,63.8 L24.3,57.9 C26.9,57.1 28.9,56.5 28.9,56.5 C28.9,56.5 31,57.2 33.5,57.9 L52.8,63.8 C55.4,64.6 57.5,63 57.5,60.4" id="Shape" fill="#474C54"></path>
                            <path d="M49.3,42.2 C49.1,42.8 48.4,43.2 47.8,43 C46.5,42.7 44.5,42.1 42.9,40.4 L35,32.5 C34.5,32 34.5,31.2 35,30.8 C35.6,30.2 36.5,30.2 37,30.8 L43.4,37.3 C47.2,30.7 46.3,22.1 40.7,16.4 C34,9.4 22.5,9.7 16,17.2 C10.3,23.8 10.4,33.7 16.2,40.2 C21.1,45.6 28.6,47.1 34.9,44.7 C35.4,44.5 36,44.6 36.4,45 C37.1,45.7 36.8,46.8 36,47.1 C28.9,49.8 20.6,48.4 14.9,42.6 C7.3,34.9 7.2,22.3 14.8,14.6 C22.3,6.9 34.8,6.7 42.6,14.3 C49.4,21 50.4,31.4 45.6,39.2 C46.5,39.9 47.6,40.3 48.5,40.5 C49.2,40.6 49.6,41.5 49.3,42.2" id="Shape" fill="#FFFFFF"></path>
                            <path d="M40.2,45.2 L36.2,41.2 C30.6,44.5 23.3,43.8 18.6,39 C12,32.3 13.1,20.7 22,15.7 C25.8,13.6 32,13.6 35.8,15.8 C41.3,19 43.8,24.7 43.2,30.2 C43.1,31.3 41.7,31.8 40.9,31 C40.6,30.7 40.5,30.4 40.6,30 C41,26.5 39.9,22.9 37.2,20.2 C32.3,15.3 24.3,15.5 19.8,20.9 C16,25.3 16,31.7 19.6,36.2 C23.3,40.7 29.4,41.7 34.2,39.2 L34.2,39.2 L31.3,36.3 C30.8,35.8 30.8,35 31.3,34.5 C31.8,33.9 32.7,33.9 33.3,34.5 L42,43.3 C43.3,44.7 45.1,45.3 46.4,45.5 C47.2,45.6 47.7,46.5 47.4,47.3 C47.2,47.9 46.6,48.3 45.9,48.2 C44.6,47.9 42.1,47.2 40.2,45.2" id="Shape" fill="#FFFFFF"></path>
                            <path d="M72.8,19.7 L71.3,19.7 C70.4,19.7 69.9,20.2 69.9,21.2 L69.9,36 C69.9,37 70.4,37.5 71.3,37.5 L72.8,37.5 C73.7,37.5 74.2,37 74.2,36 L74.2,21.1 C74.2,20.2 73.7,19.7 72.8,19.7" id="Shape" fill="#F06669"></path>
                            <path d="M119.5,19.7 L118,19.7 C117,19.7 116.5,20.2 116.5,21.2 L116.5,27.9 C116.5,31.1 114.7,33.9 111.5,33.9 C109.3,33.9 108.7,32.4 108.7,30.3 L108.7,21.2 C108.7,20.3 108.2,19.7 107.2,19.7 L105.7,19.7 C104.8,19.7 104.2,20.2 104.2,21.2 L104.2,31.2 C104.2,36.1 106.6,38 110.4,38 C113.4,38 115.8,36.1 116.6,34.3 L116.7,34.3 C116.7,34.3 116.6,34.7 116.6,35.1 L116.6,36.1 C116.6,37.1 117.1,37.6 118,37.6 L119.4,37.6 C120.3,37.6 120.9,37.1 120.9,36.1 L120.9,21.1 C121,20.2 120.4,19.7 119.5,19.7" id="Shape" fill="#F06669"></path>
                            <path d="M133.9,29.9 C133.9,32.1 132.3,34.6 129.8,34.6 C128,34.6 127.1,33.4 127.1,32.3 C127.1,29.6 130.9,29.3 133.1,29.3 L133.8,29.3 L133.8,29.9 L133.9,29.9 Z M131,19.3 C128.3,19.3 126.3,20.2 125.2,20.8 C124.4,21.3 124.2,22 124.6,22.8 L125,23.5 C125.4,24.3 126.1,24.5 127,24.1 C127.8,23.6 129.2,23.1 130.7,23.1 C132.5,23.1 134,23.9 134,26.2 L134,26.6 L133.3,26.6 C129.3,26.6 122.9,27.5 122.9,32.7 C122.9,36 125.6,38.1 128.8,38.1 C132.7,38.1 134.4,34.7 134.4,34.7 L134.5,34.7 C134.5,34.7 134.4,35 134.4,35.5 L134.4,36 C134.4,37 134.9,37.5 135.8,37.5 L137,37.5 C138,37.5 138.5,37 138.5,36 L138.5,26.3 C138.3,21.8 135.6,19.3 131,19.3 L131,19.3 Z" id="Shape" fill="#F06669"></path>
                            <path d="M151.9,19.7 L150.4,19.7 C149.5,19.7 149,20.2 149,21.2 L149,36 C149,37 149.5,37.5 150.4,37.5 L151.9,37.5 C152.8,37.5 153.3,37 153.3,36 L153.3,21.1 C153.3,20.2 152.8,19.7 151.9,19.7" id="Shape" fill="#F06669"></path>
                            <path d="M144.3,12.7 L142.8,12.7 C141.9,12.7 141.4,13.2 141.4,14.2 L141.4,36 C141.4,37 141.9,37.5 142.8,37.5 L144.3,37.5 C145.2,37.5 145.7,37 145.7,36 L145.7,14.2 C145.7,13.2 145.2,12.7 144.3,12.7" id="Shape" fill="#F06669"></path>
                            <path d="M180.6,19.7 L178.9,19.7 C178,19.7 177.5,20.1 177.3,20.9 L174.2,30 C173.9,30.9 173.6,32.3 173.6,32.3 L173.5,32.3 C173.5,32.3 173.1,30.8 172.8,29.9 L169.4,20.8 C169.1,20 168.7,19.8 167.8,19.8 L162.2,19.8 L162.1,19.8 L162.1,19.2 C162.1,16.6 163.8,16.4 164.9,16.3 C165.9,16.2 166.4,15.8 166.4,14.9 L166.4,14 C166.4,13 165.9,12.5 165,12.5 L164.5,12.5 C162.7,12.5 157.7,13.4 157.7,19 L157.7,19.8 L156.8,19.8 C155.9,19.8 155.4,20.3 155.4,21.3 L155.4,22 C155.4,23 155.9,23.5 156.8,23.5 L157.7,23.5 L157.7,36 C157.7,37 158.2,37.5 159.1,37.5 L160.6,37.5 C161.5,37.5 162.1,37 162.1,36 L162.1,23.5 L165.7,23.5 L171.6,37.3 L170.9,38.9 C170.4,40.2 169.4,41.3 168.1,41.3 C167.6,41.3 167.2,41.1 166.8,41 C166.2,40.9 165.6,41 165.2,41.8 L164.9,42.6 C164.5,43.4 164.7,44.2 165.6,44.5 C166.2,44.7 167.1,45 168.1,45 C170.7,45 173.3,43.6 174.5,40.3 L181.8,21.5 C182.2,20.3 181.7,19.7 180.6,19.7" id="Shape" fill="#F06669"></path>
                            <path d="M72,12.7 C70.8,12.7 69.8,13.7 69.8,14.9 C69.8,16.1 70.8,17.1 72,17.1 C73.2,17.1 74.2,16.1 74.2,14.9 C74.2,13.7 73.2,12.7 72,12.7" id="Shape" fill="#F06669"></path>
                            <path d="M151.1,12.7 C149.9,12.7 148.9,13.7 148.9,14.9 C148.9,16.1 149.9,17.1 151.1,17.1 C152.3,17.1 153.3,16.1 153.3,14.9 C153.3,13.7 152.3,12.7 151.1,12.7" id="Shape" fill="#F06669"></path>
                            <path d="M81.1,24.9 C81.1,20.1 84.5,16.4 89.3,16.4 C94.1,16.4 97.5,20.1 97.5,24.9 C97.5,26.4 97.2,27.8 96.7,29 L94.6,26.9 C94.2,26.5 93.4,26.5 93,26.9 L91.3,28.7 C90.9,29.1 90.9,29.9 91.3,30.3 L93.7,32.7 C92.5,33.5 91,33.9 89.4,33.9 C84.5,33.8 81.1,30 81.1,24.9 M101.9,33.3 C101.2,33.1 100.5,32.7 100,32.3 C101.4,30.2 102.1,27.7 102.1,24.9 C102.1,17.8 96.8,12.2 89.3,12.2 C81.8,12.2 76.5,17.8 76.5,24.9 C76.5,32.2 81.8,37.9 89.3,37.9 C92.3,37.9 94.9,37 97,35.5 C97.7,36 99,36.9 100.4,37.4 C100.9,37.6 101.5,37.3 101.6,36.8 L102.3,34.2 C102.4,33.8 102.2,33.4 101.9,33.3" id="Shape" fill="#F06669"></path>
                            <g transform="translate(69.000000, 43.000000)" id="Shape" fill="#474C54">
                                <path d="M0.8,1.4 C0.8,1.2 0.9,1 1.2,1 L3.6,1 C5,1 6,1.9 6,3.4 C6,4.8 5,5.8 3.6,5.8 L1.9,5.8 L1.9,8.2 C1.9,8.4 1.8,8.6 1.5,8.6 L1.2,8.6 C1,8.6 0.8,8.5 0.8,8.2 L0.8,1.4 L0.8,1.4 Z M3.4,4.9 C4.3,4.9 4.9,4.3 4.9,3.4 C4.9,2.5 4.3,2 3.4,2 L1.8,2 L1.8,4.9 L3.4,4.9 L3.4,4.9 Z"></path>
                                <path d="M9.2,3 C10.8,3 12.1,4.2 12.1,5.8 C12.1,7.5 10.8,8.7 9.2,8.7 C7.6,8.7 6.3,7.5 6.3,5.8 C6.2,4.2 7.5,3 9.2,3 L9.2,3 Z M9.2,7.8 C10.2,7.8 11.1,7 11.1,5.8 C11.1,4.7 10.3,3.9 9.2,3.9 C8.2,3.9 7.3,4.7 7.3,5.8 C7.3,7 8.1,7.8 9.2,7.8 L9.2,7.8 Z"></path>
                                <path d="M12.4,3.6 C12.3,3.4 12.4,3.2 12.7,3.2 L13,3.2 C13.2,3.2 13.3,3.3 13.4,3.5 L14.5,7 C14.6,7.3 14.6,7.6 14.6,7.6 L14.6,7.6 C14.6,7.6 14.7,7.3 14.8,7 L15.9,3.5 C15.9,3.3 16.1,3.2 16.3,3.2 L16.6,3.2 C16.8,3.2 16.9,3.3 17,3.5 L18.1,7 C18.2,7.3 18.2,7.6 18.2,7.6 L18.2,7.6 C18.2,7.6 18.3,7.3 18.3,7 L19.4,3.5 C19.4,3.3 19.6,3.2 19.8,3.2 L20.2,3.2 C20.5,3.2 20.6,3.4 20.5,3.6 L19,8.3 C18.9,8.5 18.8,8.6 18.6,8.6 L18.1,8.6 C17.9,8.6 17.8,8.5 17.7,8.3 L16.7,5.1 C16.6,4.8 16.5,4.5 16.5,4.5 L16.5,4.5 C16.5,4.5 16.4,4.8 16.3,5.1 L15.3,8.3 C15.2,8.5 15.1,8.6 14.9,8.6 L14.4,8.6 C14.2,8.6 14.1,8.5 14,8.3 L12.4,3.6 L12.4,3.6 Z"></path>
                                <path d="M23.5,3 C25,3 25.8,4.1 25.8,5.6 C25.8,5.8 25.6,6 25.4,6 L21.8,6 C21.9,7.2 22.7,7.8 23.7,7.8 C24.3,7.8 24.7,7.6 25,7.4 C25.2,7.3 25.4,7.3 25.5,7.5 L25.6,7.7 C25.7,7.9 25.7,8.1 25.5,8.2 C25.2,8.4 24.5,8.8 23.7,8.8 C22,8.8 20.8,7.6 20.8,6 C20.8,4.1 22,3 23.5,3 L23.5,3 Z M24.8,5.3 C24.8,4.3 24.2,3.9 23.5,3.9 C22.7,3.9 22.1,4.4 21.9,5.3 L24.8,5.3 L24.8,5.3 Z"></path>
                                <path d="M26.7,3.5 C26.7,3.3 26.8,3.1 27.1,3.1 L27.4,3.1 C27.6,3.1 27.8,3.2 27.8,3.5 L27.8,4.1 L27.8,4.5 L27.8,4.5 C28,3.8 28.6,3.1 29.5,3.1 C29.7,3.1 29.8,3.2 29.8,3.5 L29.8,3.8 C29.8,4 29.7,4.2 29.4,4.2 C28.3,4.2 27.8,5.3 27.8,6.4 L27.8,8.3 C27.8,8.5 27.7,8.7 27.4,8.7 L27,8.7 C26.8,8.7 26.6,8.6 26.6,8.3 L26.6,3.5 L26.7,3.5 Z"></path>
                                <path d="M32.4,3 C33.9,3 34.7,4.1 34.7,5.6 C34.7,5.8 34.5,6 34.3,6 L30.7,6 C30.8,7.2 31.6,7.8 32.6,7.8 C33.2,7.8 33.6,7.6 33.9,7.4 C34.1,7.3 34.3,7.3 34.4,7.5 L34.5,7.7 C34.6,7.9 34.6,8.1 34.4,8.2 C34.1,8.4 33.4,8.8 32.6,8.8 C30.9,8.8 29.7,7.6 29.7,6 C29.7,4.1 30.8,3 32.4,3 L32.4,3 Z M33.7,5.3 C33.7,4.3 33.1,3.9 32.4,3.9 C31.6,3.9 31,4.4 30.8,5.3 L33.7,5.3 L33.7,5.3 Z"></path>
                                <path d="M37.7,3 C38.9,3 39.4,3.9 39.4,3.9 L39.4,3.9 L39.4,3.5 L39.4,1.3 C39.4,1.1 39.5,0.9 39.8,0.9 L40.1,0.9 C40.3,0.9 40.5,1 40.5,1.3 L40.5,8.2 C40.5,8.4 40.4,8.6 40.1,8.6 L39.8,8.6 C39.6,8.6 39.4,8.5 39.4,8.3 L39.4,8 L39.4,7.7 L39.4,7.7 C39.4,7.7 38.9,8.7 37.6,8.7 C36.1,8.7 35.2,7.5 35.2,5.9 C35.2,4.1 36.2,3 37.7,3 L37.7,3 Z M37.8,7.8 C38.6,7.8 39.4,7.2 39.4,5.8 C39.4,4.8 38.9,3.9 37.9,3.9 C37.1,3.9 36.3,4.6 36.3,5.8 C36.3,7 36.9,7.8 37.8,7.8 L37.8,7.8 Z"></path>
                                <path d="M43.9,1.4 C43.9,1.2 44,1 44.3,1 L44.6,1 C44.8,1 44.9,1.1 44.9,1.4 L44.9,3.6 L44.9,4.1 L44.9,4.1 C44.9,4.1 45.4,3.1 46.7,3.1 C48.1,3.1 49.1,4.3 49.1,5.9 C49.1,7.6 48.1,8.8 46.6,8.8 C45.3,8.8 44.9,7.8 44.9,7.8 L44.9,7.8 L44.9,8.1 L44.9,8.4 C44.9,8.6 44.8,8.7 44.5,8.7 L44.2,8.7 C44,8.7 43.8,8.6 43.8,8.3 L43.8,1.4 L43.9,1.4 Z M46.5,7.8 C47.4,7.8 48.1,7.1 48.1,5.9 C48.1,4.7 47.5,4 46.6,4 C45.8,4 45,4.6 45,5.9 C44.9,6.9 45.5,7.8 46.5,7.8 L46.5,7.8 Z"></path>
                                <path d="M49.8,9.8 C49.9,9.8 50,9.9 50.2,9.9 C50.6,9.9 51,9.5 51.1,9.1 L51.4,8.5 L49.3,3.5 C49.2,3.3 49.3,3.1 49.6,3.1 L50,3.1 C50.2,3.1 50.3,3.2 50.4,3.4 L51.7,6.7 C51.8,7 51.9,7.4 51.9,7.4 L51.9,7.4 C51.9,7.4 52,7 52.1,6.8 L53.3,3.5 C53.4,3.3 53.5,3.2 53.7,3.2 L54.1,3.2 C54.4,3.2 54.5,3.4 54.4,3.6 L52,9.6 C51.7,10.4 51,10.9 50.2,10.9 C49.9,10.9 49.6,10.8 49.4,10.7 C49.2,10.6 49.2,10.4 49.2,10.2 L49.3,10 C49.5,9.8 49.6,9.8 49.8,9.8 L49.8,9.8 Z"></path>
                                <path d="M57.4,1.4 C57.4,1.2 57.5,1 57.8,1 L58.1,1 C58.3,1 58.5,1.1 58.5,1.4 L58.5,7 C58.5,7.6 58.8,7.7 59,7.7 C59.2,7.7 59.3,7.8 59.3,8 L59.3,8.3 C59.3,8.5 59.2,8.7 58.9,8.7 C58.3,8.7 57.5,8.5 57.5,7.2 L57.5,1.4 L57.4,1.4 Z"></path>
                                <path d="M62.2,3 C63.7,3 64.5,4.1 64.5,5.6 C64.5,5.8 64.3,6 64.1,6 L60.5,6 C60.6,7.2 61.4,7.8 62.4,7.8 C63,7.8 63.4,7.6 63.7,7.4 C63.9,7.3 64.1,7.3 64.2,7.5 L64.3,7.7 C64.4,7.9 64.4,8.1 64.2,8.2 C63.9,8.4 63.2,8.8 62.4,8.8 C60.7,8.8 59.5,7.6 59.5,6 C59.5,4.1 60.7,3 62.2,3 L62.2,3 Z M63.5,5.3 C63.5,4.3 62.9,3.9 62.2,3.9 C61.4,3.9 60.8,4.4 60.6,5.3 L63.5,5.3 L63.5,5.3 Z"></path>
                                <path d="M68.2,5.2 L68.5,5.2 L68.5,5.1 C68.5,4.2 68,3.9 67.3,3.9 C66.8,3.9 66.3,4.1 66.1,4.2 C65.9,4.3 65.7,4.3 65.6,4.1 L65.5,3.9 C65.4,3.7 65.4,3.5 65.6,3.4 C65.9,3.2 66.5,2.9 67.4,2.9 C68.8,2.9 69.5,3.7 69.5,5 L69.5,8.1 C69.5,8.3 69.4,8.5 69.1,8.5 L68.8,8.5 C68.6,8.5 68.4,8.4 68.4,8.1 L68.4,7.8 L68.4,7.5 L68.4,7.5 C68.4,7.5 67.9,8.6 66.6,8.6 C65.6,8.6 64.8,8 64.8,7 C64.9,5.4 67,5.2 68.2,5.2 L68.2,5.2 Z M67,7.9 C67.9,7.9 68.5,7 68.5,6.2 L68.5,6 L68.2,6 C67.4,6 66,6.1 66,7.1 C66,7.4 66.3,7.9 67,7.9 L67,7.9 Z"></path>
                                <path d="M70.6,3.5 C70.6,3.3 70.7,3.1 71,3.1 L71.3,3.1 C71.5,3.1 71.7,3.2 71.7,3.5 L71.7,4.1 L71.7,4.5 L71.7,4.5 C71.9,3.8 72.5,3.1 73.4,3.1 C73.6,3.1 73.7,3.2 73.7,3.5 L73.7,3.8 C73.7,4 73.6,4.2 73.3,4.2 C72.2,4.2 71.7,5.3 71.7,6.4 L71.7,8.3 C71.7,8.5 71.6,8.7 71.3,8.7 L71,8.7 C70.8,8.7 70.6,8.6 70.6,8.3 L70.6,3.5 L70.6,3.5 Z"></path>
                                <path d="M74.1,3.5 C74.1,3.3 74.2,3.1 74.5,3.1 L74.8,3.1 C75,3.1 75.2,3.2 75.2,3.5 L75.2,4 L75.2,4.3 L75.2,4.3 C75.4,3.8 76.1,3 77.3,3 C78.6,3 79.2,3.7 79.2,5.1 L79.2,8.2 C79.2,8.4 79.1,8.6 78.8,8.6 L78.5,8.6 C78.3,8.6 78.1,8.5 78.1,8.2 L78.1,5.3 C78.1,4.5 77.9,3.9 77.1,3.9 C76,3.9 75.3,4.8 75.3,5.9 L75.3,8.1 C75.3,8.3 75.2,8.5 74.9,8.5 L74.6,8.5 C74.4,8.5 74.2,8.4 74.2,8.1 L74.2,3.5 L74.1,3.5 Z"></path>
                                <path d="M80.1,1.7 L80.1,1.3 C80.1,1.1 80.2,0.9 80.5,0.9 L80.9,0.9 C81.1,0.9 81.3,1 81.3,1.3 L81.3,1.7 C81.3,1.9 81.2,2.1 80.9,2.1 L80.5,2.1 C80.2,2.1 80.1,1.9 80.1,1.7 L80.1,1.7 Z M80.1,3.5 C80.1,3.3 80.2,3.1 80.5,3.1 L80.8,3.1 C81,3.1 81.2,3.2 81.2,3.5 L81.2,8.2 C81.2,8.4 81.1,8.6 80.8,8.6 L80.5,8.6 C80.3,8.6 80.1,8.5 80.1,8.2 L80.1,3.5 L80.1,3.5 Z"></path>
                                <path d="M82.3,3.5 C82.3,3.3 82.4,3.1 82.7,3.1 L83,3.1 C83.2,3.1 83.4,3.2 83.4,3.5 L83.4,4 L83.4,4.3 L83.4,4.3 C83.6,3.8 84.3,3 85.5,3 C86.8,3 87.4,3.7 87.4,5.1 L87.4,8.2 C87.4,8.4 87.3,8.6 87,8.6 L86.7,8.6 C86.5,8.6 86.3,8.5 86.3,8.2 L86.3,5.3 C86.3,4.5 86.1,3.9 85.3,3.9 C84.3,3.9 83.5,4.8 83.5,5.9 L83.5,8.1 C83.5,8.3 83.4,8.5 83.1,8.5 L82.8,8.5 C82.6,8.5 82.4,8.4 82.4,8.1 L82.4,3.5 L82.3,3.5 Z"></path>
                                <path d="M89.2,9.7 C89.5,9.8 89.8,9.9 90.4,9.9 C91.3,9.9 92.1,9.5 92.1,8.4 L92.1,7.9 L92.1,7.6 L92.1,7.6 C91.8,8.2 91.3,8.5 90.5,8.5 C89,8.5 88.1,7.3 88.1,5.7 C88.1,4.2 89,3 90.5,3 C91.8,3 92.2,3.9 92.2,3.9 L92.2,3.9 L92.2,3.7 L92.2,3.4 C92.2,3.2 92.3,3.1 92.6,3.1 L92.9,3.1 C93.1,3.1 93.3,3.2 93.3,3.5 L93.3,8.3 C93.3,10.1 91.9,10.8 90.6,10.8 C90,10.8 89.4,10.7 89,10.5 C88.8,10.4 88.7,10.3 88.8,10 L88.9,9.8 C88.8,9.7 89,9.6 89.2,9.7 L89.2,9.7 Z M92.1,5.8 C92.1,4.4 91.4,4 90.6,4 C89.6,4 89.1,4.7 89.1,5.8 C89.1,7 89.7,7.7 90.7,7.7 C91.4,7.6 92.1,7.2 92.1,5.8 L92.1,5.8 Z"></path>
                            </g>
                        </g>
                    </g>
                </g>
            </g>
        </g>
    </g>
</svg>