<?xml version="1.0" encoding="utf-8"?>
<!-- Generator: Adobe Illustrator 26.0.1, SVG Export Plug-In . SVG Version: 6.00 Build 0)  -->
<svg version="1.1" id="Слой_1" xmlns="http://www.w3.org/2000/svg" xmlns:xlink="http://www.w3.org/1999/xlink" x="0px" y="0px"
	 viewBox="0 0 217.5 92" style="enable-background:new 0 0 217.5 92;" xml:space="preserve">
<style type="text/css">
	.st0{fill:#61C1E9;}
	.st1{fill:#95BF60;}
</style>
<g>
	<rect x="58.9" y="51" class="st0" width="28.6" height="5.5"/>
	<path d="M25.2,17.3l-2.8,5.2c-1.6-0.9-3.3-1.5-5.1-2c-1.5-0.4-3.1-0.7-4.7-0.7c-1.1-0.1-2.1,0.2-3.1,0.7c-0.7,0.4-1.1,1.2-1.1,2
		c0,0.6,0.3,1.2,0.9,1.5c1.2,0.6,2.5,1.1,3.8,1.4l2.9,0.8c3.6,1,6.2,2.1,7.6,3.2c1.5,1.1,2.2,3,2.3,5.5c0.1,2.7-1.1,5.2-3.3,6.8
		c-2.2,1.6-5.2,2.4-9,2.4C8.8,44,4,42.7,0,40l3-5c3.3,2.1,7.2,3.2,11.1,3.2c3.1,0,4.7-1,4.7-3.1c0-0.7-0.3-1.3-0.9-1.7
		c-1.2-0.6-2.4-1-3.7-1.2l-3.1-0.8c-3.6-0.9-6.1-1.9-7.6-3.1C2,27,1.1,25.1,1.2,23c-0.1-2.6,1.1-5.2,3.3-6.6
		c2.6-1.6,5.6-2.4,8.6-2.3C17.3,14,21.5,15.1,25.2,17.3"/>
	<polygon points="48.3,14.5 54.8,14.5 54.8,43.5 48,43.5 34.5,24.9 34.5,43.5 28,43.5 28,14.5 34.8,14.5 48.3,33.1 	"/>
	<path d="M88.6,29c0.1,4-1.6,7.9-4.5,10.6c-2.9,2.9-6.8,4.5-10.9,4.4c-4.1,0.1-8.1-1.4-11-4.4c-3-2.7-4.6-6.6-4.5-10.6
		c-0.1-4,1.6-7.9,4.5-10.5c2.9-2.9,6.9-4.5,11-4.4c4.1-0.1,8,1.5,10.8,4.4C87.1,21.2,88.7,25,88.6,29 M67.1,22.8
		c-1.6,1.6-2.5,3.9-2.5,6.2c0,2.3,0.8,4.5,2.5,6.2c3.4,3.4,8.9,3.4,12.2,0c0,0,0,0,0,0c1.6-1.6,2.5-3.9,2.5-6.2
		c0-2.3-0.9-4.6-2.5-6.2C76,19.4,70.5,19.4,67.1,22.8C67.1,22.8,67.1,22.8,67.1,22.8"/>
	<polygon points="125.7,14.5 133,14.5 123.4,43.5 116.6,43.5 110.6,24.7 104.7,43.5 97.8,43.5 88.2,14.5 95.5,14.5 101.6,33.8 
		107.4,14.5 113.9,14.5 119.6,33.7 	"/>
	<path d="M162.1,29c0.1,3.9-1.5,7.7-4.5,10.3c-3,2.8-6.9,4.3-11,4.2h-12.1v-29h12.1c4.1-0.1,8,1.4,11,4.2
		C160.6,21.3,162.2,25.1,162.1,29 M146.4,20.4h-5.3v17.2h5.3c2.4,0,4.6-0.9,6.3-2.5c3.4-3.2,3.5-8.5,0.3-11.8
		c-0.1-0.1-0.2-0.2-0.3-0.3C151,21.3,148.7,20.4,146.4,20.4"/>
	<polygon points="188.1,14.5 188.1,20.4 171.6,20.4 171.6,26 186.9,26 186.9,31.6 171.6,31.6 171.6,37.7 188.4,37.7 188.4,43.5 
		165,43.5 165,14.5 	"/>
	<polygon points="210.9,14.5 217.3,14.5 217.3,43.5 210.5,43.5 197,24.9 197,43.5 190.5,43.5 190.5,14.5 197.3,14.5 210.9,33.1 	"/>
	<polygon class="st1" points="69.5,0 57.7,9.1 66.3,9.1 73.1,3.9 79.9,9.1 88.7,9.1 76.8,0 	"/>
	<g>
		<path d="M188.3,80.5h-6.7V70.1c0.3-6.1,5.3-10.9,11.4-11.1h1.4v6.7H193c-1.1,0.1-2.2,0.5-3,1.2c-1,0.9-1.6,2.2-1.7,3.6L188.3,80.5
			z"/>
		<g>
			<rect x="171.7" y="59.1" width="6.6" height="21.5"/>
			<rect x="171.7" y="51" width="6.6" height="6.6"/>
		</g>
		<path d="M168.3,59.1h-9.2v-6.1h-6.7v15.5l0,0c0,0.1,0,0.2,0,0.4c0,6.4,5.2,11.7,11.7,11.7c1.5,0,2.9-0.3,4.2-0.8v-7.8
			c-1.7,2.2-4.9,2.7-7.2,0.9c-0.2-0.2-0.4-0.3-0.6-0.5c-0.9-0.9-1.5-2.2-1.5-3.5c0,0,0,0,0-0.1l0,0c0,0,0-0.5,0-3h9.2V59.1z"/>
		<path d="M127.8,65.9c0.1,4-1.6,7.8-4.5,10.5c-2.9,2.9-6.8,4.5-10.9,4.4c-4.1,0.1-8.1-1.5-11-4.4c-3-2.7-4.6-6.5-4.5-10.6
			c-0.1-4,1.6-7.9,4.5-10.5c6.1-5.9,15.7-5.9,21.8,0C126.2,58,127.8,61.9,127.8,65.9 M106.2,59.7c-3.3,3.5-3.3,8.9,0,12.4
			c3.4,3.4,8.9,3.4,12.2,0c0,0,0,0,0,0c3.3-3.5,3.3-8.9,0-12.4C115.1,56.3,109.6,56.3,106.2,59.7C106.2,59.7,106.2,59.7,106.2,59.7"
			/>
		<path d="M206.6,80.7c-6,0-10.9-4.9-10.9-10.9c0-6,4.9-10.9,10.9-10.9c6,0,10.9,4.9,10.9,10.9c0,0,0,0,0,0
			C217.5,75.8,212.6,80.7,206.6,80.7 M206.6,65.4c-2.4,0-4.3,2-4.3,4.4s2,4.3,4.4,4.3c2.4,0,4.3-2,4.3-4.3
			C211,67.4,209.1,65.4,206.6,65.4L206.6,65.4"/>
		<path d="M139.8,58.9c-6,0-10.9,4.9-10.9,10.9l0,0V92h6.7V79.8c1.3,0.6,2.8,0.9,4.2,0.8c6,0.2,11.1-4.6,11.2-10.6
			c0.2-6-4.6-11.1-10.6-11.2C140.3,58.9,140.1,58.9,139.8,58.9z M139.8,74.1c-2.4,0-4.3-1.9-4.3-4.4s1.9-4.3,4.4-4.3
			c2.4,0,4.3,1.9,4.3,4.3S142.2,74.1,139.8,74.1L139.8,74.1z"/>
	</g>
</g>
</svg>